<?xml version="1.0" encoding="UTF-8"?>
<svg id="Layer_2" data-name="Layer 2" xmlns="http://www.w3.org/2000/svg" viewBox="0 0 300 119.86">
  <defs>
    <style>
      .cls-1 {
        fill: #e9767c;
      }

      .cls-2 {
        fill: #171818;
      }
    </style>
  </defs>
  <g id="Layer_1-2" data-name="Layer 1">
    <g>
      <g>
        <g>
          <path class="cls-2" d="M219.58,67.42c0,1.51-.31,2.83-.93,3.93-.61,1.09-1.42,1.9-2.48,2.49-2.15,1.18-5.2,1.21-7.39,0-1.06-.58-1.86-1.39-2.45-2.47h0c-.6-1.1-.91-2.42-.91-3.94v-21.89h-5.02v22.02c0,2.46.53,4.62,1.59,6.43,1.06,1.82,2.53,3.25,4.38,4.22,1.81.96,3.86,1.45,6.09,1.45s4.33-.49,6.14-1.45c1.84-.98,3.31-2.4,4.38-4.22,1.06-1.81,1.59-3.97,1.59-6.43v-22.02h-4.98v21.89Z"/>
          <polygon class="cls-2" points="229.44 50.52 238.55 50.52 238.55 79.67 243.62 79.67 243.62 50.52 252.81 50.52 252.81 45.53 229.44 45.53 229.44 50.52"/>
          <rect class="cls-2" x="257.7" y="45.53" width="5.07" height="34.1"/>
          <path class="cls-2" d="M282.77,64.98c1.4-.81,2.5-1.9,3.27-3.26,1-1.76,1.51-3.74,1.51-5.89,0-2.27-.57-4.21-1.71-5.78-1.11-1.53-2.55-2.68-4.3-3.43-1.69-.72-3.47-1.09-5.3-1.09h-8.58v34.14h5.07v-13.1h3.37c.58,0,1.1-.02,1.58-.07l8.11,13.17h5.92l-8.96-14.69ZM272.73,61.58v-11.06h3.82c1.21,0,2.27.25,3.16.74.88.48,1.54,1.12,2.01,1.95.48.84.71,1.73.71,2.71,0,1.58-.48,2.91-1.47,4.06-.92,1.07-2.6,1.6-4.99,1.6h-3.24Z"/>
        </g>
        <g>
          <polygon class="cls-2" points="3.78 49.22 19.8 49.22 19.8 45.53 0 45.53 0 79.67 3.78 79.67 3.78 64.79 17.97 64.79 17.97 61.15 3.78 61.15 3.78 49.22"/>
          <path class="cls-2" d="M34.91,45.54h-.98l-13.78,34.03h3.73l4.13-10.33h12.77l4.09,10.33h4l-13.59-33.57-.36-.46ZM39.42,65.76h-10.02l5.07-12.63,4.96,12.63Z"/>
          <polygon class="cls-2" points="82.6 45.54 82.6 79.67 80.76 79.67 57.43 53.39 57.48 79.6 53.76 79.6 53.76 45.53 55.6 45.53 78.96 72.05 78.92 45.54 82.6 45.54"/>
          <path class="cls-2" d="M111.75,73.89c-2.29,1.45-4.77,2.18-7.38,2.18s-4.93-.6-6.9-1.78c-1.97-1.18-3.51-2.8-4.58-4.81-1.08-2.02-1.62-4.28-1.62-6.73s.59-4.77,1.77-6.84c1.17-2.07,2.78-3.74,4.79-4.94,4.12-2.47,9.24-2.45,13.88.42l.71.44,1.58-3.39-.57-.35c-2.77-1.68-5.84-2.53-9.1-2.53s-6,.77-8.56,2.28c-2.56,1.51-4.61,3.61-6.07,6.23-1.47,2.61-2.21,5.56-2.21,8.77s.72,5.89,2.14,8.45c1.43,2.57,3.45,4.62,6.01,6.12,2.56,1.5,5.54,2.26,8.87,2.26,1.75,0,3.42-.24,4.94-.73,1.52-.48,2.9-1.1,4.12-1.85l.6-.37-1.75-3.26-.68.43Z"/>
          <polygon class="cls-2" points="140.3 45.53 130.23 63.22 120.06 45.53 115.54 45.53 128.27 67.49 128.27 79.67 132.05 79.67 132.05 67.49 144.78 45.53 140.3 45.53"/>
        </g>
      </g>
      <path class="cls-1" d="M297.92,4.89c-4.9-5.72-17.19-6.43-35.56-2.07-35.81,8.5-69.96,34.25-88.57,50.28-.24.14-.45.32-.61.53-3.02,2.61-5.61,4.95-7.7,6.89l17.99-49.29c.78-2.14-.29-4.5-2.4-5.33-.49-.2-1.01-.29-1.52-.29-1.8,0-3.49,1.18-4.02,3.03l-16.67,58.47c-.1.22-.16.44-.19.67l-14.84,52.07,18.15-49.75c.22-.11.43-.25.61-.44.14-.15,4.46-4.55,11.8-11.01,13.67,23.32,29.72,36.75,47.73,39.92,2.86.5,5.64.73,8.31.73,19.6,0,33.74-11.92,34.41-12.5.96-.83,1.07-2.27.25-3.24-.82-.96-2.27-1.07-3.24-.25-.17.15-17.35,14.57-38.99,10.73-16.79-2.98-31.9-15.92-44.94-38.45,18.46-15.77,51.28-40.18,85.5-48.31,23.51-5.59,29.68-.96,31.01.59,1.14,1.33,1.28,3.08.42,5.19-2.56,6.29-13.06,13.5-26.21,14.67-1.26.11-2.2,1.23-2.08,2.49.11,1.26,1.2,2.19,2.49,2.08,15.45-1.38,27.02-10.05,30.06-17.51,1.52-3.73,1.1-7.25-1.18-9.92ZM176.44,13.18c.93-2.58,2.49-4.39,3.49-4.02,1,.36,1.06,2.73.14,5.32-.93,2.58-2.49,4.39-3.49,4.02-1-.36-1.06-2.73-.14-5.32Z"/>
    </g>
  </g>
</svg>